<?xml version="1.0" encoding="UTF-8"?>
<svg width="1200pt" height="1200pt" version="1.1" viewBox="0 0 1200 1200" xmlns="http://www.w3.org/2000/svg">
 <path d="m124.69 1087.2h33.703v57.234c0 12.609 10.219 22.781 22.781 22.781h166.78c12.609 0 22.781-10.219 22.781-22.781v-57.234h458.29v57.234c0 12.609 10.219 22.781 22.781 22.781h166.78c12.609 0 22.781-10.219 22.781-22.781v-57.234h33.703c52.219 0 94.688-42.469 94.688-94.688l0.09375-865.08c0-52.219-42.469-94.688-94.688-94.688h-950.48c-52.219 0-94.688 42.469-94.688 94.688v865.08c0 52.219 42.469 94.688 94.688 94.688zm200.63 34.406h-121.22v-34.453h121.22zm670.55 0h-121.22v-34.453h121.22zm-920.26-994.18c0-27.141 22.078-49.078 49.078-49.078h950.53c27.141 0 49.078 22.078 49.078 49.078v865.08c0 27.141-22.078 49.078-49.078 49.078h-950.53c-27.141 0-49.078-22.078-49.078-49.078zm61.547 837.24h925.69c15.609 0 28.312-12.703 28.312-28.312v-796.31c0-15.609-12.703-28.312-28.312-28.312l-925.69-0.046874c-15.609 0-28.312 12.703-28.312 28.312v796.45c0 15.609 12.703 28.312 28.312 28.312zm501.84-807.37-22.547 69.141h-32.859l-22.547-69.141h78zm-39.469 421.69-165.71-95.766 165.71-95.766 165.71 95.766zm188.63-56.297v191.39l-165.71 95.625v-191.29l165.71-95.766zm-211.45 95.766v191.29l-164.86-95.062v-191.39zm-422.26-461.16h358.55l32.297 99c3.1406 9.375 11.766 15.703 21.703 15.703h9.7031v76.078l-198.94 114.94c-7.0781 4.0781-11.391 12.609-11.391 20.766v244.08c0 8.1562 4.3125 15.703 11.391 19.781l210.47 121.45c3.4688 2.0625 7.4531 3 11.391 3s7.9219-0.9375 11.391-3l211.31-121.92c7.0781-4.0781 11.391-11.625 11.391-19.781v-244.08c0-8.1562-4.3125-15.703-11.391-19.781l-199.92-115.45v-76.078h10.547c9.8438 0 18.609-6.375 21.703-15.703l32.297-99h358.55v761.76h-891.05z"/>
</svg>
